<?xml version="1.0" encoding="utf-8"?>
<!-- Generator: Adobe Illustrator 23.0.5, SVG Export Plug-In . SVG Version: 6.00 Build 0)  -->
<svg version="1.1" id="Layer_1" xmlns="http://www.w3.org/2000/svg" xmlns:xlink="http://www.w3.org/1999/xlink" x="0px" y="0px"
	 viewBox="0 0 249.48 80.59" style="enable-background:new 0 0 249.48 80.59;" xml:space="preserve">
<style type="text/css">
	.st0{fill:#0371A1;}
	.st1{fill:#F47920;}
	.st2{fill:#FFFFFF;}
	.st3{fill:#0862AF;}
</style>
<g>
	<g>
		<path class="st0" d="M83.89,27.15l2.34-2.81c1.62,1.34,3.32,2.19,5.38,2.19c1.62,0,2.6-0.64,2.6-1.7v-0.05
			c0-1-0.62-1.52-3.63-2.29c-3.63-0.93-5.98-1.93-5.98-5.51v-0.05c0-3.27,2.63-5.44,6.31-5.44c2.63,0,4.87,0.82,6.7,2.29l-2.06,2.99
			c-1.6-1.11-3.17-1.78-4.69-1.78c-1.52,0-2.32,0.7-2.32,1.57v0.05c0,1.18,0.77,1.57,3.89,2.37c3.66,0.95,5.72,2.27,5.72,5.41v0.05
			c0,3.58-2.73,5.59-6.62,5.59C88.81,30.04,86.05,29.08,83.89,27.15z"/>
		<path class="st0" d="M107.4,11.62h3.66l7.73,18.16h-4.15l-1.65-4.04h-7.62l-1.65,4.04h-4.04L107.4,11.62z M111.58,22.23l-2.4-5.85
			l-2.4,5.85H111.58z"/>
		<path class="st0" d="M119.61,20.81v-0.05c0-5.13,3.86-9.32,9.4-9.32c3.4,0,5.43,1.13,7.11,2.78l-2.52,2.91
			c-1.39-1.26-2.81-2.03-4.61-2.03c-3.04,0-5.23,2.52-5.23,5.61v0.05c0,3.09,2.14,5.67,5.23,5.67c2.06,0,3.32-0.82,4.74-2.11
			l2.52,2.55c-1.85,1.98-3.92,3.22-7.39,3.22C123.55,30.09,119.61,25.99,119.61,20.81z"/>
		<path class="st0" d="M139.41,11.75h8.24c2.29,0,4.07,0.64,5.25,1.83c1,1,1.54,2.42,1.54,4.12v0.05c0,2.91-1.57,4.74-3.86,5.59
			l4.4,6.44h-4.64l-3.86-5.77h-3.12v5.77h-3.97V11.75z M147.4,20.51c1.93,0,3.04-1.03,3.04-2.55V17.9c0-1.7-1.18-2.58-3.12-2.58
			h-3.94v5.18H147.4z"/>
		<path class="st0" d="M158.03,11.75h13.6v3.53h-9.66v3.66h8.5v3.53h-8.5v3.79h9.79v3.53h-13.73V11.75z"/>
		<path class="st0" d="M175.28,11.75h7.03c5.67,0,9.58,3.89,9.58,8.96v0.05c0,5.07-3.92,9.02-9.58,9.02h-7.03V11.75z M182.32,26.2
			c3.25,0,5.43-2.19,5.43-5.38v-0.05c0-3.19-2.19-5.43-5.43-5.43h-3.07V26.2H182.32z"/>
		<path class="st1" d="M85.46,37.22h4.59v8.25h8.46v-8.25h4.59v20.85h-4.59V49.7h-8.46v8.37h-4.59V37.22z"/>
		<path class="st1" d="M108.31,37.22h4.59v20.85h-4.59V37.22z"/>
		<path class="st1" d="M118.11,37.22h4.94l5.48,8.82l5.48-8.82h4.94v20.85h-4.56V44.46l-5.87,8.91h-0.12l-5.81-8.82v13.52h-4.5
			V37.22z"/>
		<path class="st1" d="M151.11,37.08h4.23l8.94,21h-4.79l-1.91-4.68h-8.82l-1.91,4.68h-4.68L151.11,37.08z M155.94,49.35l-2.77-6.76
			l-2.77,6.76H155.94z"/>
		<path class="st1" d="M167.49,37.22h4.59V53.9h10.4v4.17h-14.98V37.22z"/>
		<path class="st1" d="M193.08,37.08h4.23l8.94,21h-4.8l-1.91-4.68h-8.82l-1.91,4.68h-4.68L193.08,37.08z M197.9,49.35l-2.77-6.76
			l-2.77,6.76H197.9z"/>
		<path class="st1" d="M212.05,49.85l-8.01-12.63h5.36l4.97,8.37l5.06-8.37h5.21l-8.01,12.54v8.31h-4.59V49.85z"/>
		<path class="st1" d="M231.38,37.08h4.23l8.94,21h-4.79l-1.91-4.68h-8.82l-1.91,4.68h-4.68L231.38,37.08z M236.21,49.35l-2.77-6.76
			l-2.77,6.76H236.21z"/>
	</g>
	<g>
		<path d="M87.62,65.94h-1.81v-0.97h4.63v0.97h-1.81v5.01h-1.01V65.94z"/>
		<path d="M90.79,66.44h0.99v1.02c0.27-0.68,0.77-1.14,1.52-1.1v1.09h-0.06c-0.86,0-1.47,0.59-1.47,1.79v1.72h-0.99V66.44z"/>
		<path d="M93.77,68.71v-0.02c0-1.29,0.87-2.35,2.1-2.35c1.37,0,2.06,1.13,2.06,2.43c0,0.09-0.01,0.19-0.02,0.29h-3.16
			c0.11,0.73,0.6,1.14,1.24,1.14c0.48,0,0.82-0.19,1.17-0.54l0.58,0.54c-0.41,0.51-0.97,0.85-1.76,0.85
			C94.73,71.05,93.77,70.1,93.77,68.71z M96.96,68.38c-0.06-0.67-0.44-1.19-1.09-1.19c-0.6,0-1.03,0.49-1.12,1.19H96.96z"/>
		<path d="M98.93,64.71h0.99v3.73l1.78-2h1.2l-1.71,1.84l1.77,2.67h-1.14l-1.3-1.95l-0.6,0.66v1.29h-0.99V64.71z"/>
		<path d="M103.66,64.71h0.99v3.73l1.78-2h1.2l-1.71,1.84l1.77,2.67h-1.14l-1.3-1.95l-0.6,0.66v1.29h-0.99V64.71z"/>
		<path d="M108.42,64.76h1.06v0.98h-1.06V64.76z M108.46,66.44h0.99v4.51h-0.99V66.44z"/>
		<path d="M110.73,66.44h0.99v0.7c0.28-0.43,0.68-0.79,1.34-0.79c0.97,0,1.53,0.68,1.53,1.73v2.87h-0.99v-2.56
			c0-0.7-0.33-1.1-0.92-1.1c-0.57,0-0.97,0.42-0.97,1.12v2.55h-0.99V66.44z"/>
		<path d="M115.77,71.8l0.37-0.78c0.46,0.3,0.95,0.48,1.53,0.48c0.88,0,1.36-0.48,1.36-1.38v-0.35c-0.36,0.49-0.81,0.83-1.52,0.83
			c-1.01,0-1.96-0.79-1.96-2.11v-0.02c0-1.33,0.95-2.12,1.96-2.12c0.73,0,1.17,0.35,1.51,0.77v-0.68h0.99v3.59
			c0,0.76-0.19,1.32-0.55,1.7c-0.39,0.41-0.99,0.61-1.77,0.61C116.99,72.33,116.33,72.15,115.77,71.8z M119.04,68.48v-0.02
			c0-0.74-0.58-1.25-1.26-1.25c-0.68,0-1.22,0.5-1.22,1.24v0.02c0,0.74,0.55,1.25,1.22,1.25C118.46,69.72,119.04,69.21,119.04,68.48
			z"/>
		<path d="M120.89,71.75c0.5-0.1,0.73-0.37,0.69-0.8h-0.42v-1.17h1.08v0.99c0,0.95-0.43,1.35-1.25,1.42L120.89,71.75z"/>
		<path d="M127.38,65.94h-1.81v-0.97h4.63v0.97h-1.81v5.01h-1.01V65.94z"/>
		<path d="M129.98,68.72V68.7c0-1.29,0.98-2.36,2.3-2.36s2.29,1.05,2.29,2.34v0.02c0,1.28-0.98,2.35-2.31,2.35
			C130.95,71.05,129.98,70,129.98,68.72z M133.58,68.72V68.7c0-0.79-0.55-1.45-1.32-1.45c-0.79,0-1.3,0.65-1.3,1.44v0.02
			c0,0.79,0.55,1.45,1.31,1.45C133.08,70.15,133.58,69.5,133.58,68.72z"/>
		<path d="M135.52,69.31v-2.87h0.99V69c0,0.7,0.33,1.1,0.92,1.1c0.57,0,0.97-0.42,0.97-1.12v-2.55h0.99v4.51h-0.99v-0.7
			c-0.28,0.43-0.68,0.79-1.34,0.79C136.08,71.04,135.52,70.36,135.52,69.31z"/>
		<path d="M140.61,66.44h0.99v1.02c0.27-0.68,0.77-1.14,1.52-1.1v1.09h-0.06c-0.86,0-1.47,0.59-1.47,1.79v1.72h-0.99V66.44z"/>
		<path d="M143.63,70.36l0.44-0.7c0.46,0.37,0.97,0.56,1.41,0.56c0.42,0,0.67-0.19,0.67-0.49v-0.02c0-0.35-0.46-0.47-0.96-0.63
			c-0.64-0.19-1.34-0.46-1.34-1.32v-0.02c0-0.85,0.68-1.38,1.53-1.38c0.54,0,1.12,0.2,1.58,0.51l-0.39,0.73
			c-0.42-0.26-0.86-0.43-1.21-0.43c-0.38,0-0.6,0.19-0.6,0.45v0.02c0,0.32,0.46,0.46,0.97,0.63c0.63,0.21,1.34,0.5,1.34,1.32v0.02
			c0,0.95-0.7,1.42-1.6,1.42C144.84,71.03,144.16,70.8,143.63,70.36z"/>
		<path d="M153.8,70.26c-0.49,0.48-1.06,0.78-1.75,0.78c-1.06,0-1.86-0.67-1.86-1.71v-0.02c0-0.77,0.43-1.32,1.21-1.67
			c-0.33-0.44-0.47-0.81-0.47-1.25v-0.02c0-0.8,0.62-1.5,1.64-1.5c0.9,0,1.52,0.64,1.52,1.44v0.02c0,0.79-0.5,1.26-1.25,1.55
			l0.98,1.04c0.22-0.34,0.42-0.74,0.61-1.15l0.76,0.42c-0.23,0.48-0.48,0.95-0.77,1.37l0.9,0.96l-0.74,0.56L153.8,70.26z
			 M153.23,69.64l-1.27-1.36c-0.53,0.24-0.76,0.61-0.76,0.99v0.02c0,0.5,0.4,0.87,0.95,0.87C152.54,70.16,152.9,69.97,153.23,69.64z
			 M153.19,66.39v-0.02c0-0.4-0.27-0.68-0.65-0.68c-0.41,0-0.68,0.3-0.68,0.72v0.02c0,0.3,0.11,0.52,0.43,0.89
			C152.88,67.09,153.19,66.81,153.19,66.39z"/>
		<path d="M160.73,64.92h0.93l2.51,6.02h-1.06l-0.58-1.44h-2.7l-0.59,1.44h-1.03L160.73,64.92z M162.17,68.57l-0.99-2.39l-0.98,2.39
			H162.17z"/>
		<path d="M164.61,68.7v-0.02c0-1.5,0.97-2.34,2-2.34c0.71,0,1.16,0.38,1.47,0.79v-2.43h0.99v6.24h-0.99V70.2
			c-0.32,0.47-0.77,0.85-1.47,0.85C165.59,71.04,164.61,70.2,164.61,68.7z M168.09,68.7v-0.02c0-0.87-0.59-1.44-1.25-1.44
			c-0.68,0-1.24,0.55-1.24,1.44v0.02c0,0.87,0.57,1.44,1.24,1.44C167.5,70.15,168.09,69.56,168.09,68.7z"/>
		<path d="M169.88,66.44h1.06l1.16,3.32l1.17-3.32h1.03l-1.76,4.55h-0.89L169.88,66.44z"/>
		<path d="M174.65,68.71v-0.02c0-1.29,0.87-2.35,2.1-2.35c1.37,0,2.06,1.13,2.06,2.43c0,0.09-0.01,0.19-0.02,0.29h-3.16
			c0.11,0.73,0.6,1.14,1.24,1.14c0.48,0,0.82-0.19,1.17-0.54l0.58,0.54c-0.41,0.51-0.97,0.85-1.76,0.85
			C175.61,71.05,174.65,70.1,174.65,68.71z M177.83,68.38c-0.07-0.67-0.44-1.19-1.09-1.19c-0.6,0-1.03,0.49-1.12,1.19H177.83z"/>
		<path d="M179.8,66.44h0.99v0.7c0.28-0.43,0.68-0.79,1.34-0.79c0.97,0,1.53,0.68,1.53,1.73v2.87h-0.99v-2.56
			c0-0.7-0.33-1.1-0.92-1.1c-0.57,0-0.97,0.42-0.97,1.12v2.55h-0.99V66.44z"/>
		<path d="M185.05,69.7v-2.38h-0.55v-0.89h0.55V65.2h0.99v1.24h1.16v0.89h-1.16v2.21c0,0.4,0.2,0.56,0.53,0.56
			c0.22,0,0.42-0.05,0.61-0.15v0.85c-0.24,0.15-0.52,0.23-0.89,0.23C185.57,71.03,185.05,70.69,185.05,69.7z"/>
		<path d="M188.14,69.31v-2.87h0.99V69c0,0.7,0.33,1.1,0.92,1.1c0.57,0,0.97-0.42,0.97-1.12v-2.55H192v4.51h-0.99v-0.7
			c-0.28,0.43-0.68,0.79-1.34,0.79C188.7,71.04,188.14,70.36,188.14,69.31z"/>
		<path d="M193.24,66.44h0.99v1.02c0.27-0.68,0.77-1.14,1.52-1.1v1.09h-0.06c-0.86,0-1.47,0.59-1.47,1.79v1.72h-0.99V66.44z"/>
		<path d="M196.22,68.71v-0.02c0-1.29,0.87-2.35,2.1-2.35c1.37,0,2.06,1.13,2.06,2.43c0,0.09-0.01,0.19-0.02,0.29h-3.16
			c0.11,0.73,0.6,1.14,1.24,1.14c0.48,0,0.82-0.19,1.17-0.54l0.58,0.54c-0.41,0.51-0.97,0.85-1.76,0.85
			C197.18,71.05,196.22,70.1,196.22,68.71z M199.4,68.38c-0.07-0.67-0.44-1.19-1.09-1.19c-0.6,0-1.03,0.49-1.12,1.19H199.4z"/>
		<path d="M203.54,70.08l0.6-0.75c0.55,0.5,1.09,0.78,1.8,0.78c0.62,0,1.01-0.3,1.01-0.75v-0.02c0-0.43-0.23-0.66-1.29-0.91
			c-1.21-0.31-1.9-0.68-1.9-1.79v-0.02c0-1.03,0.82-1.73,1.95-1.73c0.83,0,1.49,0.26,2.07,0.75l-0.54,0.79
			c-0.51-0.4-1.03-0.62-1.55-0.62c-0.59,0-0.93,0.32-0.93,0.71v0.02c0,0.46,0.26,0.67,1.35,0.94c1.21,0.31,1.83,0.76,1.83,1.75v0.02
			c0,1.12-0.84,1.79-2.04,1.79C205.05,71.03,204.23,70.72,203.54,70.08z"/>
		<path d="M209.02,66.44h0.99v0.75c0.32-0.47,0.77-0.85,1.46-0.85c1.02,0,2,0.85,2,2.34v0.02c0,1.5-0.98,2.34-2,2.34
			c-0.71,0-1.16-0.38-1.46-0.79v2.07h-0.99V66.44z M212.47,68.7v-0.02c0-0.87-0.56-1.44-1.23-1.44c-0.67,0-1.25,0.58-1.25,1.44v0.02
			c0,0.87,0.59,1.44,1.25,1.44C211.92,70.15,212.47,69.59,212.47,68.7z"/>
		<path d="M214.24,68.71v-0.02c0-1.29,0.87-2.35,2.1-2.35c1.37,0,2.06,1.13,2.06,2.43c0,0.09-0.01,0.19-0.02,0.29h-3.16
			c0.11,0.73,0.6,1.14,1.24,1.14c0.48,0,0.82-0.19,1.17-0.54l0.58,0.54c-0.41,0.51-0.97,0.85-1.76,0.85
			C215.21,71.05,214.24,70.1,214.24,68.71z M217.43,68.38c-0.07-0.67-0.44-1.19-1.09-1.19c-0.6,0-1.03,0.49-1.12,1.19H217.43z"/>
		<path d="M219.16,68.72V68.7c0-1.28,0.95-2.36,2.23-2.36c0.82,0,1.32,0.32,1.72,0.78l-0.61,0.69c-0.3-0.33-0.62-0.56-1.12-0.56
			c-0.72,0-1.24,0.65-1.24,1.44v0.02c0,0.8,0.53,1.45,1.29,1.45c0.46,0,0.81-0.23,1.12-0.56l0.59,0.62
			c-0.42,0.5-0.92,0.85-1.76,0.85C220.11,71.05,219.16,70,219.16,68.72z"/>
		<path d="M224.06,64.76h1.06v0.98h-1.06V64.76z M224.1,66.44h0.99v4.51h-0.99V66.44z"/>
		<path d="M229.01,70.95v-0.56c-0.29,0.37-0.74,0.65-1.39,0.65c-0.81,0-1.53-0.49-1.53-1.39v-0.02c0-1,0.74-1.48,1.74-1.48
			c0.52,0,0.86,0.08,1.19,0.19v-0.09c0-0.62-0.38-0.97-1.06-0.97c-0.48,0-0.84,0.11-1.23,0.28l-0.27-0.83
			c0.47-0.22,0.94-0.38,1.64-0.38c1.27,0,1.89,0.7,1.89,1.91v2.67H229.01z M229.03,69.06c-0.25-0.1-0.6-0.18-0.99-0.18
			c-0.62,0-0.99,0.26-0.99,0.7v0.02c0,0.43,0.37,0.67,0.83,0.67c0.65,0,1.14-0.38,1.14-0.95V69.06z"/>
		<path d="M231.21,64.71h0.99v6.24h-0.99V64.71z"/>
		<path d="M233.5,64.76h1.06v0.98h-1.06V64.76z M233.54,66.44h0.99v4.51h-0.99V66.44z"/>
		<path d="M235.46,70.36l0.44-0.7c0.46,0.37,0.97,0.56,1.41,0.56c0.42,0,0.67-0.19,0.67-0.49v-0.02c0-0.35-0.46-0.47-0.96-0.63
			c-0.64-0.19-1.34-0.46-1.34-1.32v-0.02c0-0.85,0.68-1.38,1.53-1.38c0.54,0,1.12,0.2,1.58,0.51l-0.39,0.73
			c-0.42-0.26-0.86-0.43-1.21-0.43c-0.38,0-0.6,0.19-0.6,0.45v0.02c0,0.32,0.46,0.46,0.97,0.63c0.63,0.21,1.34,0.5,1.34,1.32v0.02
			c0,0.95-0.7,1.42-1.6,1.42C236.68,71.03,236,70.8,235.46,70.36z"/>
		<path d="M240.01,69.7v-2.38h-0.55v-0.89h0.55V65.2h0.99v1.24h1.16v0.89h-1.16v2.21c0,0.4,0.2,0.56,0.53,0.56
			c0.22,0,0.42-0.05,0.61-0.15v0.85c-0.24,0.15-0.52,0.23-0.89,0.23C240.52,71.03,240.01,70.69,240.01,69.7z"/>
		<path d="M242.79,70.36l0.44-0.7c0.46,0.37,0.97,0.56,1.41,0.56c0.42,0,0.67-0.19,0.67-0.49v-0.02c0-0.35-0.46-0.47-0.96-0.63
			c-0.64-0.19-1.34-0.46-1.34-1.32v-0.02c0-0.85,0.68-1.38,1.53-1.38c0.54,0,1.12,0.2,1.58,0.51l-0.39,0.73
			c-0.42-0.26-0.86-0.43-1.21-0.43c-0.38,0-0.6,0.19-0.6,0.45v0.02c0,0.32,0.46,0.46,0.97,0.63c0.63,0.21,1.34,0.5,1.34,1.32v0.02
			c0,0.95-0.7,1.42-1.6,1.42C244,71.03,243.33,70.8,242.79,70.36z"/>
	</g>
</g>
<path class="st0" d="M71.64,78.49H7.34c-2.43,0-4.4-1.97-4.4-4.4V7.1c0-2.43,1.97-4.4,4.4-4.4h64.3c2.43,0,4.4,1.97,4.4,4.4v66.99
	C76.04,76.52,74.07,78.49,71.64,78.49z"/>
<g>
	<path class="st2" d="M29.04,57.64c0-3,0-6,0-9.01c0-0.97-0.54-1.55-1.5-1.61c-5.24-0.33-9.64-2.48-13.35-6.13
		c-0.81-0.8-0.76-1.91,0.2-2.54c1.05-0.69,2.16-1.28,3.24-1.91c0.55-0.32,1.1-0.64,1.64-0.97c0.63-0.38,0.91-0.32,1.43,0.22
		c0.81,0.84,1.62,1.68,2.48,2.46c0.45,0.41,1.01,0.71,1.54,1.04c0.13,0.08,0.35,0.12,0.48,0.06c0.08-0.04,0.09-0.28,0.1-0.44
		c0.01-0.1-0.03-0.2-0.05-0.3c-0.13-0.83,0.03-1.57,0.73-2.1c1.13-0.86,2.27-1.71,3.41-2.55c0.99-0.73,1.99-1.44,2.97-2.18
		c0.16-0.12,0.25-0.33,0.38-0.5c-0.19-0.1-0.37-0.25-0.57-0.3c-2.25-0.55-4.51-1.08-6.76-1.62c-1.5-0.35-2.97-0.78-4.33-1.53
		c-1.36-0.74-2.52-1.7-3.26-3.1c-0.54-1.02-0.72-2.12-0.64-3.26c0.09-1.31,0.4-2.56,1.03-3.73c0.92-1.71,2.26-2.97,3.96-3.88
		c1.78-0.94,3.7-1.47,5.63-1.97c0.86-0.22,1.72-0.26,2.59-0.25c1.2,0.01,2.4-0.06,3.59,0.02c0.86,0.05,1.71,0.29,2.56,0.44
		c2.34,0.41,4.58,1.15,6.71,2.21c0.87,0.43,1.29,0.88,1.22,1.85c-0.04,0.6-0.38,0.99-0.84,1.29c-0.93,0.6-1.88,1.18-2.81,1.77
		c-0.56,0.36-1.11,0.72-1.67,1.08c-0.87,0.56-1.16,0.53-1.99-0.1c-1.02-0.78-2.02-1.61-3.12-2.26c-1.81-1.07-3.73-1.91-5.89-1.81
		c-1.26,0.06-2.4,0.5-3.2,1.57c-0.84,1.13-0.56,2.39,0.25,3.38c0.78,0.96,1.85,1.37,3.01,1.64c1.84,0.42,3.67,0.9,5.5,1.35
		c1.17,0.29,2.36,0.54,3.52,0.89c2.17,0.65,4.34,1.31,6.2,2.66c1.57,1.14,2.35,2.77,2.71,4.62c0.23,1.17,0.23,2.35,0.11,3.53
		c-0.09,0.9,0.54,1.44,1.45,1.27c1.13-0.21,2.26-0.42,3.4-0.57c2.24-0.29,4.3,0.26,6.25,1.36c3.58,2.02,5.95,5.02,7.19,8.92
		c0.25,0.77,0.47,1.55,0.67,2.34c0.09,0.37,0.1,0.76,0.11,1.14c0.03,0.83,0.03,1.65,0.03,2.48c0,0.25,0,0.52-0.08,0.74
		c-0.42,1.15-0.8,2.33-1.34,3.42c-0.85,1.74-2.13,3.19-3.46,4.58c-2.02,2.1-4.32,3.86-6.76,5.43c-0.68,0.44-1.42,0.79-2.14,1.16
		c-0.36,0.19-0.69-0.02-0.85-0.5c-0.27-0.81-0.02-1.57,0.71-2.16c0.66-0.53,1.36-1.01,1.98-1.57c2.22-1.98,3.62-4.46,4.07-7.38
		c0.78-4.97-1.09-9.66-5.44-12.4c-3.25-2.04-6.73-2.24-10.25-0.62c-1.35,0.62-2.67,1.33-4,2.02c-0.91,0.47-1.34,1.25-1.33,2.28
		c0.03,4.67,0.04,9.35,0.08,14.02c0.01,0.87-0.25,1.56-0.89,2.17c-1.52,1.45-2.99,2.95-4.5,4.41c-0.53,0.51-1.08,0.46-1.58-0.08
		c-0.38-0.41-0.54-0.89-0.54-1.46C29.04,63.68,29.04,60.66,29.04,57.64C29.04,57.64,29.04,57.64,29.04,57.64z M40.68,35.66
		c0.05-0.65-0.33-1.42-1.02-2.03c-0.94-0.82-2.08-1.22-3.27-1.48c-0.34-0.07-0.51,0.13-0.43,0.46c0.06,0.27,0.22,0.53,0.25,0.8
		c0.13,1.11,0.26,2.22,0.32,3.34c0.06,1.1,0.01,2.21,0.03,3.32c0.02,1.21,0.09,1.24,1.14,0.7C39.65,39.76,40.61,38.14,40.68,35.66z"
		/>
	<path class="st2" d="M55.21,34.59c-1.7,0-3.4,0-5.1,0c-0.31,0-0.62,0.07-0.93,0.05c-0.16-0.01-0.41-0.13-0.45-0.26
		c-0.04-0.13,0.09-0.36,0.2-0.48c0.32-0.33,0.68-0.6,1-0.93c0.11-0.11,0.15-0.32,0.16-0.48c0.03-0.57,0.03-1.15,0.05-1.73
		c0.01-0.46-0.3-0.72-0.63-0.95c-0.2-0.14-0.45-0.22-0.66-0.35c-0.08-0.05-0.18-0.15-0.17-0.22c0-0.06,0.12-0.17,0.2-0.18
		c0.52-0.07,0.8-0.43,1.11-0.8c0.45-0.52,0.99-0.97,1.46-1.48c0.35-0.37,0.68-0.77,0.94-1.21c0.09-0.15-0.02-0.48-0.12-0.68
		c-0.26-0.53-0.58-1.03-0.85-1.55c-0.37-0.74-0.11-1.22,0.68-1.4c0.34-0.08,0.68-0.19,1.01-0.32c0.38-0.15,0.51-0.68,0.25-1.15
		c-0.14-0.25-0.19-0.46-0.08-0.75c0.06-0.15-0.04-0.36-0.06-0.55c-0.02-0.31-0.1-0.64-0.03-0.94c0.16-0.66,0.41-1.29,0.59-1.95
		c0.08-0.29,0.08-0.61,0.12-0.91c0.03-0.22,0.07-0.43,0.1-0.65c0.03-0.22,0.13-0.47,0.05-0.64c-0.25-0.56-0.04-1.06,0.1-1.58
		c0.06-0.21,0.07-0.44,0.16-0.64c0.06-0.14,0.22-0.23,0.34-0.35c0.09,0.12,0.22,0.22,0.26,0.35c0.14,0.45,0.3,0.9,0.35,1.36
		c0.07,0.66,0,1.33,0.06,1.99c0.04,0.48,0.19,0.94,0.31,1.41c0.16,0.61,0.37,1.21,0.51,1.83c0.05,0.21-0.02,0.47-0.12,0.67
		c-0.15,0.3-0.17,0.53,0.14,0.72c0.26,0.16,0.27,0.33,0.13,0.59c-0.33,0.6-0.17,0.96,0.46,1.19c0.29,0.11,0.58,0.21,0.87,0.32
		c0.54,0.21,0.72,0.56,0.48,1.08c-0.29,0.66-0.62,1.3-0.97,1.94c-0.18,0.33-0.1,0.53,0.13,0.81c0.74,0.92,1.81,1.53,2.36,2.62
		c0.06,0.12,0.25,0.19,0.4,0.24c0.18,0.07,0.39,0.07,0.55,0.16c0.13,0.07,0.21,0.22,0.32,0.33c-0.11,0.09-0.2,0.21-0.32,0.26
		c-0.83,0.36-1.11,0.82-1.05,1.71c0.03,0.43-0.01,0.86,0.01,1.29c0.01,0.16,0.05,0.37,0.16,0.48c0.34,0.32,0.72,0.61,1.08,0.9
		c0.07,0.06,0.16,0.1,0.2,0.17c0.08,0.15,0.13,0.32,0.2,0.48c-0.16,0.06-0.31,0.16-0.47,0.16C58.88,34.59,57.04,34.59,55.21,34.59
		C55.21,34.59,55.21,34.59,55.21,34.59z M54.8,25.85c0.99,0,1.81-0.95,1.67-1.95c-0.02-0.15-0.11-0.31-0.22-0.41
		c-0.29-0.28-0.59-0.53-0.9-0.79c-0.33-0.28-0.74-0.37-1.05-0.07c-0.41,0.39-0.73,0.88-1.07,1.33c-0.05,0.06-0.06,0.17-0.06,0.26
		C53.17,25.1,53.92,25.85,54.8,25.85z"/>
</g>
</svg>
